<svg version="1.1" id="Layer_1" xmlns="http://www.w3.org/2000/svg" xmlns:xlink="http://www.w3.org/1999/xlink" x="0px" y="0px"
	 width="100%" viewBox="0 0 149 56" enable-background="new 0 0 149 56" xml:space="preserve">
<path fill="#282828" opacity="1.000000" stroke="none" 
	d="
M141.095581,57.000000 
	C94.085762,57.000000 47.588646,57.000000 1.045762,57.000000 
	C1.045762,38.365086 1.045762,19.730042 1.045762,1.047496 
	C50.631889,1.047496 100.263832,1.047496 149.947891,1.047496 
	C149.947891,19.630655 149.947891,38.261482 149.947891,57.000000 
	C147.203171,57.000000 144.405716,57.000000 141.095581,57.000000 
M78.499527,35.990673 
	C78.499527,35.990673 78.879059,35.978886 79.356476,36.241631 
	C79.194641,34.854782 79.032814,33.467934 78.242516,32.003799 
	C77.652168,32.059456 77.061813,32.115108 76.471466,32.170765 
	C76.613602,32.504238 76.755730,32.837715 76.951294,33.817024 
	C77.341148,34.532150 77.731010,35.247276 78.499527,35.990673 
M93.417107,36.429577 
	C93.357681,34.605114 93.298256,32.780651 92.576973,30.649254 
	C92.360374,30.759827 92.143776,30.870399 91.502563,30.991383 
	C91.502563,30.991383 91.078445,30.968277 90.367119,30.852926 
	C89.099419,31.326870 87.831718,31.800812 87.747253,31.832392 
	C88.789146,33.417412 89.896988,35.102757 91.497971,36.925491 
	C91.665756,36.894356 91.833542,36.863224 92.434601,36.952290 
	C92.434601,36.952290 92.880775,36.896530 93.417107,36.429577 
M56.367691,34.493027 
	C56.704460,34.473499 56.983982,34.336826 57.595425,34.133373 
	C57.595425,34.133373 57.946369,34.308933 57.881672,34.822170 
	C59.139751,36.322311 59.139751,36.322311 63.445408,34.256165 
	C63.044518,33.253647 62.638634,32.238632 62.766094,30.841070 
	C63.132004,25.051676 59.855373,28.914078 57.528782,29.012640 
	C57.528782,29.012640 57.097015,29.175371 56.579021,29.431231 
	C56.408714,29.521130 56.238403,29.611031 55.582439,29.348654 
	C55.388580,29.299519 55.194725,29.250381 54.867241,28.652689 
	C53.240986,28.780989 51.614731,28.909288 49.238255,29.264549 
	C49.475544,30.946194 49.712830,32.627838 49.883495,34.811935 
	C51.154797,38.661167 52.665997,34.575405 54.437588,34.955902 
	C54.437588,34.955902 54.820915,34.863895 55.391525,34.611618 
	C55.571842,34.508186 55.752155,34.404755 56.367691,34.493027 
M75.506676,35.458939 
	C75.506676,35.458939 75.532265,35.515862 75.506676,35.458939 
z"/>
<path fill="#523C43" opacity="1.000000" stroke="none" 
	d="
M62.232742,31.223619 
	C62.638634,32.238632 63.044518,33.253647 63.445408,34.256165 
	C59.139751,36.322311 59.139751,36.322311 58.260208,34.395020 
	C59.100399,33.130264 59.562050,32.292656 60.280014,31.324942 
	C61.101799,31.204432 61.667271,31.214025 62.232742,31.223619 
z"/>
<path fill="#413748" opacity="1.000000" stroke="none" 
	d="
M62.499420,31.032345 
	C61.667271,31.214025 61.101799,31.204432 59.938400,31.505348 
	C58.890144,30.890039 58.439812,29.964220 57.989479,29.038401 
	C59.855373,28.914078 63.132004,25.051676 62.499420,31.032345 
z"/>
<path fill="#523C43" opacity="1.000000" stroke="none" 
	d="
M54.042717,34.937679 
	C52.665997,34.575405 51.154797,38.661167 50.262001,34.389160 
	C51.101574,33.129269 51.562634,32.292160 52.076015,31.363853 
	C52.128338,31.272663 52.430607,30.982735 52.628021,31.344263 
	C53.231194,32.783085 53.636955,33.860382 54.042717,34.937679 
z"/>
<path fill="#413748" opacity="1.000000" stroke="none" 
	d="
M52.430607,30.982735 
	C52.430607,30.982735 52.128338,31.272663 51.734390,31.544262 
	C50.889786,30.889771 50.439129,29.963680 49.988476,29.037588 
	C51.614731,28.909288 53.240986,28.780989 54.860519,29.122179 
	C54.853798,29.591669 54.593456,29.919682 54.271736,29.916281 
	C53.443546,30.269499 52.937077,30.626116 52.430607,30.982735 
z"/>
<path fill="#8B3B2E" opacity="1.000000" stroke="none" 
	d="
M91.004822,36.788101 
	C89.896988,35.102757 88.789146,33.417412 87.747253,31.832392 
	C87.831718,31.800812 89.099419,31.326870 90.666962,31.326626 
	C90.979485,33.462917 90.992157,35.125511 91.004822,36.788101 
z"/>
<path fill="#DEE0BA" opacity="1.000000" stroke="none" 
	d="
M57.759132,29.025520 
	C58.439812,29.964220 58.890144,30.890039 59.682087,31.635452 
	C59.562050,32.292656 59.100399,33.130264 58.292557,34.138405 
	C57.946369,34.308933 57.595425,34.133373 57.283455,33.709877 
	C57.013325,31.916046 57.055168,30.545710 57.097015,29.175371 
	C57.097015,29.175371 57.528782,29.012640 57.759132,29.025520 
z"/>
<path fill="#DEE0BA" opacity="1.000000" stroke="none" 
	d="
M49.613365,29.151070 
	C50.439129,29.963680 50.889786,30.889771 51.682068,31.635454 
	C51.562634,32.292160 51.101574,33.129269 50.295315,34.137932 
	C49.712830,32.627838 49.475544,30.946194 49.613365,29.151070 
z"/>
<path fill="#B7F0EF" opacity="1.000000" stroke="none" 
	d="
M52.628021,31.344261 
	C52.937077,30.626116 53.443546,30.269499 54.453407,30.298744 
	C54.911507,32.077705 54.866211,33.470798 54.820915,34.863895 
	C54.820915,34.863895 54.437588,34.955902 54.240150,34.946793 
	C53.636955,33.860382 53.231194,32.783085 52.628021,31.344261 
z"/>
<path fill="#2772B9" opacity="1.000000" stroke="none" 
	d="
M56.838020,29.303301 
	C57.055168,30.545710 57.013325,31.916046 57.088867,33.684700 
	C56.983982,34.336826 56.704460,34.473499 56.172997,34.073090 
	C56.008236,32.335743 56.038166,31.018335 56.068096,29.700930 
	C56.238403,29.611031 56.408714,29.521130 56.838020,29.303301 
z"/>
<path fill="#B97227" opacity="1.000000" stroke="none" 
	d="
M55.825268,29.524792 
	C56.038166,31.018335 56.008236,32.335743 55.955391,33.977234 
	C55.752155,34.404755 55.571842,34.508186 55.106220,34.737755 
	C54.866211,33.470798 54.911507,32.077705 54.775131,30.302147 
	C54.593456,29.919682 54.853798,29.591669 54.927330,29.396458 
	C55.194725,29.250381 55.388580,29.299519 55.825268,29.524792 
z"/>
<path fill="#539FE0" opacity="1.000000" stroke="none" 
	d="
M91.251396,36.856796 
	C90.992157,35.125511 90.979485,33.462917 91.022629,31.384300 
	C91.078445,30.968277 91.502563,30.991383 91.753395,31.403116 
	C92.003258,33.487267 92.002289,35.159679 92.001328,36.832096 
	C91.833542,36.863224 91.665756,36.894356 91.251396,36.856796 
z"/>
<path fill="#FFE09F" opacity="1.000000" stroke="none" 
	d="
M92.217964,36.892193 
	C92.002289,35.159679 92.003258,33.487267 91.965706,31.397911 
	C92.143776,30.870399 92.360374,30.759827 92.886108,31.228245 
	C93.090424,33.503670 92.985603,35.200100 92.880775,36.896530 
	C92.880775,36.896530 92.434601,36.952290 92.217964,36.892193 
z"/>
<path fill="#653553" opacity="1.000000" stroke="none" 
	d="
M93.148941,36.663055 
	C92.985603,35.200100 93.090424,33.503670 93.217041,31.381712 
	C93.298256,32.780651 93.357681,34.605114 93.148941,36.663055 
z"/>
<path fill="#9F5327" opacity="1.000000" stroke="none" 
	d="
M78.870987,32.081085 
	C79.032814,33.467934 79.194641,34.854782 79.168243,35.739750 
	C78.926033,34.500397 78.872063,33.762924 78.878555,32.792007 
	C78.939011,32.558559 78.870987,32.081085 78.870987,32.081085 
z"/>
<path fill="#EAFFF5" opacity="1.000000" stroke="none" 
	d="
M78.556747,32.042442 
	C78.870987,32.081085 78.939011,32.558559 78.646149,32.798775 
	C78.353294,33.038990 77.894936,33.117794 77.643494,33.090515 
	C77.227325,33.099216 77.062592,33.135201 76.897865,33.171188 
	C76.755730,32.837715 76.613602,32.504238 76.471466,32.170765 
	C77.061813,32.115108 77.652168,32.059456 78.556747,32.042442 
z"/>
<path fill="#332B48" opacity="1.000000" stroke="none" 
	d="
M76.924576,33.494106 
	C77.062592,33.135201 77.227325,33.099216 77.675552,33.444923 
	C78.012993,34.538544 78.066933,35.250473 78.120865,35.962402 
	C77.731010,35.247276 77.341148,34.532150 76.924576,33.494106 
z"/>
<path fill="#C0FFE0" opacity="1.000000" stroke="none" 
	d="
M78.310196,35.976540 
	C78.066933,35.250473 78.012993,34.538544 77.927002,33.472206 
	C77.894936,33.117794 78.353294,33.038990 78.585693,33.032219 
	C78.872063,33.762924 78.926033,34.500397 78.929535,35.608376 
	C78.879059,35.978886 78.499527,35.990673 78.310196,35.976540 
z"/>
<path fill="#332B48" opacity="1.000000" stroke="none" 
	d="
M75.519470,35.487400 
	C75.532265,35.515862 75.506676,35.458939 75.519470,35.487400 
z"/>
</svg>